<?xml version="1.0" encoding="UTF-8" standalone="no"?>
<!DOCTYPE svg PUBLIC "-//W3C//DTD SVG 1.1//EN" "http://www.w3.org/Graphics/SVG/1.1/DTD/svg11.dtd">
<!-- Created with Vectornator (http://vectornator.io/) -->
<svg height="100%" stroke-miterlimit="10" style="fill-rule:nonzero;clip-rule:evenodd;stroke-linecap:round;stroke-linejoin:round;" version="1.1" viewBox="0 0 16 16" width="100%" xml:space="preserve" xmlns="http://www.w3.org/2000/svg" xmlns:vectornator="http://vectornator.io" xmlns:xlink="http://www.w3.org/1999/xlink">
<defs/>
<g id="Untitled" vectornator:layerName="Untitled">
<path d="M8 4C8.27614 4 8.5 4.22386 8.5 4.5L8.5 10.293L10.646 8.146C10.8415 7.95061 11.1584 7.95066 11.3539 8.14612C11.5493 8.34158 11.5494 8.65847 11.354 8.854L8.354 11.854C8.2602 11.948 8.13283 12.0009 8 12.0009C7.86717 12.0009 7.7398 11.948 7.646 11.854L4.646 8.854C4.45038 8.65851 4.45032 8.34143 4.64588 8.14588C4.84143 7.95032 5.15851 7.95038 5.354 8.146L7.5 10.293L7.5 4.5C7.5 4.22386 7.72386 4 8 4Z" fill="#ffffff" fill-rule="evenodd" opacity="1" stroke="none"/>
</g>
</svg>
